<mxfile host="app.diagrams.net" modified="2024-05-23T08:27:27.858Z" agent="Mozilla/5.0 (Windows NT 10.0; Win64; x64) AppleWebKit/537.36 (KHTML, like Gecko) Chrome/124.0.0.0 Safari/537.36" etag="WgNQLVKYDaV4qv2-NV9p" version="24.4.6" type="github">
  <diagram id="6a731a19-8d31-9384-78a2-239565b7b9f0" name="Page-1">
    <mxGraphModel dx="7467" dy="3120" grid="1" gridSize="10" guides="1" tooltips="1" connect="1" arrows="1" fold="1" page="1" pageScale="1" pageWidth="4681" pageHeight="3300" background="none" math="0" shadow="0">
      <root>
        <mxCell id="0" />
        <mxCell id="1" parent="0" />
        <mxCell id="UbHPXt2y35fTo_uNYz5--2140" value="" style="rounded=0;whiteSpace=wrap;html=1;fillColor=none;dashed=1;strokeWidth=10;strokeColor=#99FFFF;movable=1;resizable=1;rotatable=1;deletable=1;editable=1;locked=0;connectable=1;" vertex="1" parent="1">
          <mxGeometry x="1810" y="980" width="1780" height="1040" as="geometry" />
        </mxCell>
        <mxCell id="UbHPXt2y35fTo_uNYz5--2085" value="" style="rounded=1;whiteSpace=wrap;html=1;strokeColor=#66FFFF;strokeWidth=10;dashed=1;" vertex="1" parent="1">
          <mxGeometry x="960" y="250" width="754" height="479" as="geometry" />
        </mxCell>
        <mxCell id="UbHPXt2y35fTo_uNYz5--2086" value="" style="rounded=1;whiteSpace=wrap;html=1;strokeColor=#66FFFF;strokeWidth=10;dashed=1;" vertex="1" parent="1">
          <mxGeometry x="1960" y="260" width="754" height="479" as="geometry" />
        </mxCell>
        <mxCell id="UbHPXt2y35fTo_uNYz5--2087" value="" style="rounded=1;whiteSpace=wrap;html=1;strokeColor=#66FFFF;strokeWidth=10;dashed=1;" vertex="1" parent="1">
          <mxGeometry x="2910" y="250" width="754" height="479" as="geometry" />
        </mxCell>
        <mxCell id="UbHPXt2y35fTo_uNYz5--2147" style="edgeStyle=orthogonalEdgeStyle;rounded=0;orthogonalLoop=1;jettySize=auto;html=1;exitX=0.92;exitY=0.5;exitDx=0;exitDy=0;exitPerimeter=0;entryX=0;entryY=0.5;entryDx=0;entryDy=0;strokeWidth=10;" edge="1" parent="1" source="UbHPXt2y35fTo_uNYz5--2088" target="UbHPXt2y35fTo_uNYz5--2090">
          <mxGeometry relative="1" as="geometry">
            <Array as="points">
              <mxPoint x="650" y="1180" />
              <mxPoint x="650" y="1485" />
            </Array>
          </mxGeometry>
        </mxCell>
        <mxCell id="UbHPXt2y35fTo_uNYz5--2088" value="" style="rounded=1;whiteSpace=wrap;html=1;strokeColor=none;strokeWidth=10;dashed=1;verticalLabelPosition=bottom;verticalAlign=top;fillColor=#00BEF2;shape=mxgraph.azure.laptop;pointerEvents=1;" vertex="1" parent="1">
          <mxGeometry x="90" y="1010" width="390" height="340" as="geometry" />
        </mxCell>
        <mxCell id="UbHPXt2y35fTo_uNYz5--2149" style="edgeStyle=orthogonalEdgeStyle;rounded=0;orthogonalLoop=1;jettySize=auto;html=1;exitX=1;exitY=0.5;exitDx=0;exitDy=0;exitPerimeter=0;entryX=0;entryY=0.5;entryDx=0;entryDy=0;strokeWidth=10;" edge="1" parent="1" source="UbHPXt2y35fTo_uNYz5--2089" target="UbHPXt2y35fTo_uNYz5--2090">
          <mxGeometry relative="1" as="geometry" />
        </mxCell>
        <mxCell id="UbHPXt2y35fTo_uNYz5--2089" value="" style="rounded=1;whiteSpace=wrap;html=1;strokeColor=none;strokeWidth=10;dashed=1;verticalLabelPosition=bottom;verticalAlign=top;fillColor=#00BEF2;shape=mxgraph.azure.mobile;pointerEvents=1;" vertex="1" parent="1">
          <mxGeometry x="200" y="1560" width="200" height="320" as="geometry" />
        </mxCell>
        <mxCell id="UbHPXt2y35fTo_uNYz5--2091" value="" style="rounded=1;whiteSpace=wrap;html=1;strokeColor=#091717;strokeWidth=10;dashed=1;shape=singleArrow;" vertex="1" parent="1">
          <mxGeometry x="2470" y="1350" width="440" height="190" as="geometry" />
        </mxCell>
        <mxCell id="UbHPXt2y35fTo_uNYz5--2092" value="" style="rounded=1;whiteSpace=wrap;html=1;strokeColor=#66FFFF;strokeWidth=10;dashed=1;" vertex="1" parent="1">
          <mxGeometry x="3910" y="980" width="560" height="1020" as="geometry" />
        </mxCell>
        <mxCell id="UbHPXt2y35fTo_uNYz5--2096" value="&lt;span style=&quot;font-size: 72px;&quot;&gt;注册中心集群&lt;/span&gt;" style="text;html=1;align=center;verticalAlign=middle;whiteSpace=wrap;rounded=0;" vertex="1" parent="1">
          <mxGeometry x="1000" y="60" width="650" height="140" as="geometry" />
        </mxCell>
        <mxCell id="UbHPXt2y35fTo_uNYz5--2097" value="&lt;span style=&quot;font-size: 72px;&quot;&gt;配置中心集群&lt;/span&gt;" style="text;html=1;align=center;verticalAlign=middle;whiteSpace=wrap;rounded=0;" vertex="1" parent="1">
          <mxGeometry x="2000" y="50" width="650" height="140" as="geometry" />
        </mxCell>
        <mxCell id="UbHPXt2y35fTo_uNYz5--2098" value="&lt;span style=&quot;font-size: 72px;&quot;&gt;监控中心集群&lt;/span&gt;" style="text;html=1;align=center;verticalAlign=middle;whiteSpace=wrap;rounded=0;" vertex="1" parent="1">
          <mxGeometry x="2940" y="60" width="650" height="140" as="geometry" />
        </mxCell>
        <mxCell id="UbHPXt2y35fTo_uNYz5--2099" value="&lt;span style=&quot;font-size: 72px;&quot;&gt;网关服务集群&lt;/span&gt;" style="text;html=1;align=center;verticalAlign=middle;whiteSpace=wrap;rounded=0;" vertex="1" parent="1">
          <mxGeometry x="720" y="790" width="650" height="140" as="geometry" />
        </mxCell>
        <mxCell id="UbHPXt2y35fTo_uNYz5--2100" value="&lt;span style=&quot;font-size: 72px;&quot;&gt;应用服务集群&lt;/span&gt;" style="text;html=1;align=center;verticalAlign=middle;whiteSpace=wrap;rounded=0;" vertex="1" parent="1">
          <mxGeometry x="2360" y="800" width="650" height="140" as="geometry" />
        </mxCell>
        <mxCell id="UbHPXt2y35fTo_uNYz5--2101" value="&lt;span style=&quot;font-size: 72px;&quot;&gt;日志收集系统&lt;/span&gt;" style="text;html=1;align=center;verticalAlign=middle;whiteSpace=wrap;rounded=0;" vertex="1" parent="1">
          <mxGeometry x="3865" y="810" width="650" height="140" as="geometry" />
        </mxCell>
        <mxCell id="UbHPXt2y35fTo_uNYz5--2102" value="" style="verticalLabelPosition=bottom;html=1;verticalAlign=top;align=center;strokeColor=none;fillColor=#00BEF2;shape=mxgraph.azure.server_rack;" vertex="1" parent="1">
          <mxGeometry x="1160" y="290" width="340" height="360" as="geometry" />
        </mxCell>
        <mxCell id="UbHPXt2y35fTo_uNYz5--2103" value="" style="verticalLabelPosition=bottom;html=1;verticalAlign=top;align=center;strokeColor=none;fillColor=#00BEF2;shape=mxgraph.azure.worker_role;" vertex="1" parent="1">
          <mxGeometry x="2230" y="290" width="180" height="180" as="geometry" />
        </mxCell>
        <mxCell id="UbHPXt2y35fTo_uNYz5--2104" value="" style="verticalLabelPosition=bottom;html=1;verticalAlign=top;align=center;strokeColor=none;fillColor=#00BEF2;shape=mxgraph.azure.worker_role;" vertex="1" parent="1">
          <mxGeometry x="2230" y="500" width="180" height="180" as="geometry" />
        </mxCell>
        <mxCell id="UbHPXt2y35fTo_uNYz5--2105" value="" style="verticalLabelPosition=bottom;html=1;verticalAlign=top;align=center;strokeColor=none;fillColor=#00BEF2;shape=mxgraph.azure.virtual_machine_feature;pointerEvents=1;" vertex="1" parent="1">
          <mxGeometry x="3150" y="290" width="180" height="140" as="geometry" />
        </mxCell>
        <mxCell id="UbHPXt2y35fTo_uNYz5--2106" value="" style="verticalLabelPosition=bottom;html=1;verticalAlign=top;align=center;strokeColor=none;fillColor=#00BEF2;shape=mxgraph.azure.virtual_machine_feature;pointerEvents=1;" vertex="1" parent="1">
          <mxGeometry x="3150" y="480" width="180" height="140" as="geometry" />
        </mxCell>
        <mxCell id="UbHPXt2y35fTo_uNYz5--2108" value="&lt;span style=&quot;font-size: 72px;&quot;&gt;手机&lt;/span&gt;" style="text;html=1;align=center;verticalAlign=middle;whiteSpace=wrap;rounded=0;" vertex="1" parent="1">
          <mxGeometry x="85" y="1410" width="430" height="140" as="geometry" />
        </mxCell>
        <mxCell id="UbHPXt2y35fTo_uNYz5--2109" value="&lt;span style=&quot;font-size: 72px;&quot;&gt;电脑&lt;/span&gt;" style="text;html=1;align=center;verticalAlign=middle;whiteSpace=wrap;rounded=0;" vertex="1" parent="1">
          <mxGeometry x="95" y="810" width="430" height="140" as="geometry" />
        </mxCell>
        <mxCell id="UbHPXt2y35fTo_uNYz5--2137" value="" style="group" vertex="1" connectable="0" parent="1">
          <mxGeometry x="900" y="975" width="300" height="1020" as="geometry" />
        </mxCell>
        <mxCell id="UbHPXt2y35fTo_uNYz5--2090" value="" style="rounded=1;whiteSpace=wrap;html=1;strokeColor=#66FFFF;strokeWidth=10;dashed=1;" vertex="1" parent="UbHPXt2y35fTo_uNYz5--2137">
          <mxGeometry width="300" height="1020" as="geometry" />
        </mxCell>
        <mxCell id="UbHPXt2y35fTo_uNYz5--2111" value="" style="verticalLabelPosition=bottom;html=1;verticalAlign=top;align=center;strokeColor=none;fillColor=#00BEF2;shape=mxgraph.azure.express_route;pointerEvents=1;" vertex="1" parent="UbHPXt2y35fTo_uNYz5--2137">
          <mxGeometry x="50.322580645161295" y="35" width="222.58064516129033" height="270" as="geometry" />
        </mxCell>
        <mxCell id="UbHPXt2y35fTo_uNYz5--2112" value="" style="verticalLabelPosition=bottom;html=1;verticalAlign=top;align=center;strokeColor=none;fillColor=#00BEF2;shape=mxgraph.azure.express_route;pointerEvents=1;" vertex="1" parent="UbHPXt2y35fTo_uNYz5--2137">
          <mxGeometry x="38.70967741935484" y="320" width="222.58064516129033" height="270" as="geometry" />
        </mxCell>
        <mxCell id="UbHPXt2y35fTo_uNYz5--2113" value="" style="verticalLabelPosition=bottom;html=1;verticalAlign=top;align=center;strokeColor=none;fillColor=#00BEF2;shape=mxgraph.azure.express_route;pointerEvents=1;" vertex="1" parent="UbHPXt2y35fTo_uNYz5--2137">
          <mxGeometry x="38.70967741935484" y="650" width="222.58064516129033" height="270" as="geometry" />
        </mxCell>
        <mxCell id="UbHPXt2y35fTo_uNYz5--2144" value="" style="image;sketch=0;aspect=fixed;html=1;points=[];align=center;fontSize=12;image=img/lib/mscae/Chart.svg;" vertex="1" parent="1">
          <mxGeometry x="4080" y="1250" width="281.25" height="270" as="geometry" />
        </mxCell>
        <mxCell id="UbHPXt2y35fTo_uNYz5--2145" value="" style="endArrow=classic;html=1;rounded=0;" edge="1" parent="1">
          <mxGeometry width="50" height="50" relative="1" as="geometry">
            <mxPoint x="2810" y="1800" as="sourcePoint" />
            <mxPoint x="2860" y="1750" as="targetPoint" />
          </mxGeometry>
        </mxCell>
        <mxCell id="UbHPXt2y35fTo_uNYz5--2146" value="" style="endArrow=classic;html=1;rounded=0;" edge="1" parent="1">
          <mxGeometry width="50" height="50" relative="1" as="geometry">
            <mxPoint x="2810" y="1800" as="sourcePoint" />
            <mxPoint x="2860" y="1750" as="targetPoint" />
          </mxGeometry>
        </mxCell>
        <mxCell id="UbHPXt2y35fTo_uNYz5--2150" style="edgeStyle=orthogonalEdgeStyle;rounded=0;orthogonalLoop=1;jettySize=auto;html=1;exitX=1;exitY=0.5;exitDx=0;exitDy=0;entryX=0;entryY=0.5;entryDx=0;entryDy=0;strokeWidth=10;" edge="1" parent="1" source="UbHPXt2y35fTo_uNYz5--2090" target="UbHPXt2y35fTo_uNYz5--2140">
          <mxGeometry relative="1" as="geometry" />
        </mxCell>
        <mxCell id="UbHPXt2y35fTo_uNYz5--2151" value="&lt;span style=&quot;font-size: 72px;&quot;&gt;服务熔断限流&lt;/span&gt;" style="text;html=1;align=center;verticalAlign=middle;whiteSpace=wrap;rounded=0;" vertex="1" parent="1">
          <mxGeometry x="1270" y="1230" width="450" height="140" as="geometry" />
        </mxCell>
        <mxCell id="UbHPXt2y35fTo_uNYz5--2152" value="&lt;span style=&quot;font-size: 72px;&quot;&gt;负载均衡&lt;/span&gt;" style="text;html=1;align=center;verticalAlign=middle;whiteSpace=wrap;rounded=0;" vertex="1" parent="1">
          <mxGeometry x="1250" y="1550" width="450" height="140" as="geometry" />
        </mxCell>
        <mxCell id="UbHPXt2y35fTo_uNYz5--2114" value="" style="rounded=1;whiteSpace=wrap;html=1;strokeColor=#66FFFF;strokeWidth=10;dashed=1;" vertex="1" parent="1">
          <mxGeometry x="2040" y="1060" width="430" height="830" as="geometry" />
        </mxCell>
        <mxCell id="UbHPXt2y35fTo_uNYz5--2116" value="" style="verticalLabelPosition=bottom;html=1;verticalAlign=top;align=center;strokeColor=none;fillColor=#00BEF2;shape=mxgraph.azure.server;" vertex="1" parent="1">
          <mxGeometry x="2110" y="1165" width="280" height="170" as="geometry" />
        </mxCell>
        <mxCell id="UbHPXt2y35fTo_uNYz5--2117" value="" style="verticalLabelPosition=bottom;html=1;verticalAlign=top;align=center;strokeColor=none;fillColor=#00BEF2;shape=mxgraph.azure.server;" vertex="1" parent="1">
          <mxGeometry x="2115" y="1385" width="280" height="170" as="geometry" />
        </mxCell>
        <mxCell id="UbHPXt2y35fTo_uNYz5--2118" value="" style="verticalLabelPosition=bottom;html=1;verticalAlign=top;align=center;strokeColor=none;fillColor=#00BEF2;shape=mxgraph.azure.server;" vertex="1" parent="1">
          <mxGeometry x="2110" y="1605" width="280" height="170" as="geometry" />
        </mxCell>
        <mxCell id="UbHPXt2y35fTo_uNYz5--2153" value="&lt;span style=&quot;font-size: 72px;&quot;&gt;服务器A1&lt;/span&gt;" style="text;html=1;align=center;verticalAlign=middle;whiteSpace=wrap;rounded=0;" vertex="1" parent="1">
          <mxGeometry x="1890" y="1120" width="90" height="660" as="geometry" />
        </mxCell>
        <mxCell id="UbHPXt2y35fTo_uNYz5--2154" value="&lt;span style=&quot;font-size: 72px;&quot;&gt;服务器A2&lt;/span&gt;" style="text;html=1;align=center;verticalAlign=middle;whiteSpace=wrap;rounded=0;" vertex="1" parent="1">
          <mxGeometry x="3380" y="1150" width="90" height="660" as="geometry" />
        </mxCell>
        <mxCell id="UbHPXt2y35fTo_uNYz5--2142" value="" style="group" vertex="1" connectable="0" parent="1">
          <mxGeometry x="2930" y="1060" width="430" height="830" as="geometry" />
        </mxCell>
        <mxCell id="UbHPXt2y35fTo_uNYz5--2115" value="" style="rounded=1;whiteSpace=wrap;html=1;strokeColor=#66FFFF;strokeWidth=10;dashed=1;" vertex="1" parent="UbHPXt2y35fTo_uNYz5--2142">
          <mxGeometry width="430" height="830" as="geometry" />
        </mxCell>
        <mxCell id="UbHPXt2y35fTo_uNYz5--2135" value="" style="group" vertex="1" connectable="0" parent="UbHPXt2y35fTo_uNYz5--2142">
          <mxGeometry x="60" y="80" width="290" height="650" as="geometry" />
        </mxCell>
        <mxCell id="UbHPXt2y35fTo_uNYz5--2119" value="" style="verticalLabelPosition=bottom;html=1;verticalAlign=top;align=center;strokeColor=none;fillColor=#00BEF2;shape=mxgraph.azure.server;" vertex="1" parent="UbHPXt2y35fTo_uNYz5--2135">
          <mxGeometry x="10" width="280" height="170" as="geometry" />
        </mxCell>
        <mxCell id="UbHPXt2y35fTo_uNYz5--2120" value="" style="verticalLabelPosition=bottom;html=1;verticalAlign=top;align=center;strokeColor=none;fillColor=#00BEF2;shape=mxgraph.azure.server;" vertex="1" parent="UbHPXt2y35fTo_uNYz5--2135">
          <mxGeometry y="240" width="280" height="170" as="geometry" />
        </mxCell>
        <mxCell id="UbHPXt2y35fTo_uNYz5--2121" value="" style="verticalLabelPosition=bottom;html=1;verticalAlign=top;align=center;strokeColor=none;fillColor=#00BEF2;shape=mxgraph.azure.server;" vertex="1" parent="UbHPXt2y35fTo_uNYz5--2135">
          <mxGeometry x="10" y="480" width="280" height="170" as="geometry" />
        </mxCell>
        <mxCell id="UbHPXt2y35fTo_uNYz5--2157" value="&lt;span style=&quot;font-size: 72px;&quot;&gt;远程调用&lt;/span&gt;" style="text;html=1;align=center;verticalAlign=middle;whiteSpace=wrap;rounded=0;" vertex="1" parent="1">
          <mxGeometry x="2520" y="1150" width="340" height="230" as="geometry" />
        </mxCell>
        <mxCell id="UbHPXt2y35fTo_uNYz5--2159" value="" style="rounded=1;whiteSpace=wrap;html=1;strokeColor=#66FFFF;strokeWidth=10;dashed=1;" vertex="1" parent="1">
          <mxGeometry x="2510" y="2400" width="440" height="279" as="geometry" />
        </mxCell>
        <mxCell id="UbHPXt2y35fTo_uNYz5--2161" value="&lt;span style=&quot;font-size: 72px;&quot;&gt;消息队列&lt;/span&gt;" style="text;html=1;align=center;verticalAlign=middle;whiteSpace=wrap;rounded=0;" vertex="1" parent="1">
          <mxGeometry x="2420" y="2740" width="650" height="140" as="geometry" />
        </mxCell>
        <mxCell id="UbHPXt2y35fTo_uNYz5--2162" value="&lt;span style=&quot;font-size: 72px;&quot;&gt;R&lt;/span&gt;" style="text;html=1;align=center;verticalAlign=middle;whiteSpace=wrap;rounded=0;" vertex="1" parent="1">
          <mxGeometry x="2560" y="2434.5" width="290" height="210" as="geometry" />
        </mxCell>
      </root>
    </mxGraphModel>
  </diagram>
</mxfile>
